<?xml version="1.0" encoding="UTF-8"?>
<svg version="1.1" xmlns="http://www.w3.org/2000/svg" width="941" height="941">
<path d="M0 0 C2.15326449 -0.00302514 4.30652791 -0.00691644 6.45978945 -0.01159257 C12.34278838 -0.02183446 18.2257261 -0.01970049 24.10872996 -0.01541197 C30.46674984 -0.01293782 36.82475525 -0.02196744 43.18276978 -0.02944946 C55.62556728 -0.04217922 68.06834253 -0.04399808 80.51114539 -0.0416492 C90.62791285 -0.03981294 100.74467399 -0.04158312 110.86144066 -0.04587364 C112.31751056 -0.04647606 113.77358047 -0.04707725 115.22965037 -0.04767724 C117.42409763 -0.04858455 119.61854488 -0.04949322 121.81299213 -0.0504096 C142.2021834 -0.05883289 162.5913723 -0.06317911 182.98056507 -0.05900288 C184.1322784 -0.05876831 184.1322784 -0.05876831 185.30725866 -0.05852901 C189.19837166 -0.05772329 193.08948466 -0.05687752 196.98059765 -0.05601571 C197.75331551 -0.05584462 198.52603336 -0.05567353 199.32216691 -0.05549726 C200.88478782 -0.0551506 202.44740872 -0.05480207 204.01002962 -0.05445167 C228.32129122 -0.04909517 252.63251653 -0.05702542 276.94377136 -0.07548523 C304.28966142 -0.0962252 331.63552901 -0.10692418 358.98142737 -0.10290974 C361.90010082 -0.10251443 364.81877428 -0.10215288 367.73744774 -0.10181236 C368.81533789 -0.10167627 368.81533789 -0.10167627 369.91500359 -0.10153742 C380.73775656 -0.10037403 391.56048675 -0.10699994 402.38323402 -0.11762428 C414.69899926 -0.12970232 427.01470494 -0.13092831 439.33047203 -0.11883412 C445.60914208 -0.11295472 451.88771453 -0.11182012 458.16637802 -0.12383652 C463.92344945 -0.13472628 469.68034214 -0.13155518 475.43740531 -0.11757483 C477.51061469 -0.11493643 479.58383821 -0.11726722 481.65703366 -0.1253107 C497.68050894 -0.1831209 513.11965128 1.11431978 528.50016785 5.94819641 C529.32355652 6.20310852 530.14694519 6.45802063 530.99528503 6.72065735 C552.93214023 13.74750304 573.22568693 25.11747941 589.1603241 41.94819641 C590.48679714 43.38169074 590.48679714 43.38169074 592.50016785 44.26069641 C592.50016785 44.92069641 592.50016785 45.58069641 592.50016785 46.26069641 C593.16016785 46.26069641 593.82016785 46.26069641 594.50016785 46.26069641 C619.69694892 68.51533838 632.07050844 106.91179198 634.50016785 139.26069641 C634.82746034 146.26259335 634.77128118 153.27204922 634.75413513 160.27972412 C634.75644427 162.35634328 634.75962382 164.43296163 634.76358962 166.50957829 C634.77188402 172.17143248 634.76783686 177.83321863 634.76161718 183.49507296 C634.75707161 189.61856126 634.76408688 195.74203827 634.76957703 201.86552429 C634.77793854 213.15315337 634.77723922 224.44075497 634.77175409 235.72838335 C634.76671069 246.15901306 634.76541528 256.5896349 634.76779938 267.02026558 C634.76802853 268.060593 634.76802853 268.060593 634.76826232 269.12193713 C634.76888506 271.93773695 634.76952187 274.75353677 634.77018184 277.56933658 C634.7762916 303.95155636 634.77076614 330.33376248 634.75998805 356.71598015 C634.75049882 380.12127375 634.75134617 403.52654558 634.76091003 426.93183899 C634.77163497 453.26620364 634.77585715 479.60055623 634.76968551 505.93492275 C634.76904413 508.74571899 634.76841845 511.55651523 634.76779938 514.36731148 C634.76764122 515.05933205 634.76748307 515.75135262 634.76732012 516.46434351 C634.76505153 526.88410421 634.76769386 537.30385616 634.77275848 547.72361565 C634.7784929 559.58001962 634.77682236 571.43639795 634.766197 583.29280096 C634.76095843 589.33653408 634.75885247 595.38022316 634.7654953 601.42395592 C634.77149464 606.96626685 634.76811446 612.50849327 634.7575402 618.05079664 C634.75532295 620.04588407 634.75640432 622.04097878 634.76129177 624.03606146 C634.86095683 668.13430201 622.59799615 707.07362719 591.50016785 739.26069641 C590.9872821 739.79694641 590.47439636 740.33319641 589.94596863 740.88569641 C585.89649515 745.04320133 581.66287999 748.68527781 577.00016785 752.13569641 C576.30512146 752.65035461 575.61007507 753.16501282 574.89396667 753.69526672 C554.11143652 768.86375968 530.21085805 779.24746902 504.50016785 782.26069641 C503.84504861 782.34291405 503.18992936 782.4251317 502.51495802 782.50984079 C492.70166314 783.58180898 482.86350852 783.40276063 473.00611877 783.39440918 C470.91334194 783.39627898 468.82056546 783.39858036 466.72778952 783.4012745 C460.99345932 783.40737799 455.25914373 783.40726062 449.52481103 783.40608013 C443.33375338 783.40587575 437.14270037 783.41139839 430.9516449 783.4161377 C418.82814823 783.42443692 406.7046582 783.42720519 394.58115928 783.42775007 C384.72411002 783.42821019 374.86706233 783.43027154 365.01001358 783.4334507 C362.16929201 783.43434829 359.32857045 783.4352381 356.48784888 783.43612558 C355.42842871 783.43645715 355.42842871 783.43645715 354.34760611 783.43679542 C334.48927222 783.44294703 314.63093887 783.44689625 294.77260399 783.44645214 C294.02436587 783.44643656 293.27612774 783.44642098 292.50521574 783.44640493 C288.71312316 783.44632183 284.92103058 783.44622279 281.128938 783.44612022 C280.37586075 783.44610028 279.62278349 783.44608033 278.84688571 783.44605978 C277.32398046 783.44601935 275.80107521 783.44597755 274.27816996 783.44593439 C250.59190921 783.44532184 226.90566278 783.45282565 203.21940613 783.46650696 C176.58661579 783.48188399 149.95383486 783.4904722 123.3210398 783.48954374 C120.4784321 783.48946911 117.6358244 783.4894204 114.79321671 783.48938942 C114.09333396 783.48937777 113.39345121 783.48936611 112.67235989 783.4893541 C101.43370405 783.48932339 90.1950607 783.4956957 78.95640857 783.50432168 C67.65119647 783.51281898 56.34600747 783.51360106 45.04079215 783.50721236 C38.92228814 783.50395225 32.80382914 783.5038721 26.68532944 783.51256561 C21.07560261 783.52045401 15.46595632 783.51897533 9.85623141 783.51028148 C7.83540938 783.50875164 5.81458127 783.51054303 3.79376642 783.51614156 C-11.07960494 783.55459203 -25.81706605 782.91288702 -40.37483215 779.57319641 C-41.10838928 779.40513489 -41.84194641 779.23707336 -42.59773254 779.06391907 C-67.09162563 773.14220448 -88.73968549 761.44572044 -107.1990509 744.37007141 C-109.27115855 742.47034623 -111.39824346 740.6784326 -113.56233215 738.88569641 C-135.17127092 719.8646545 -147.51868138 691.38487568 -153.81233215 663.88569641 C-153.97177307 663.19757874 -154.13121399 662.50946106 -154.29548645 661.80049133 C-157.04888149 648.96599522 -156.64468278 635.80462156 -156.63354492 622.7535553 C-156.63541513 620.67157712 -156.63771667 618.58959928 -156.64041024 616.507622 C-156.64650861 610.80782524 -156.64639697 605.10804318 -156.64521587 599.40824389 C-156.64501137 593.25266975 -156.65053531 587.09710028 -156.65527344 580.94152832 C-156.66356957 568.89002636 -156.66634078 556.83853062 -156.66688582 544.78702655 C-156.66734603 534.9891078 -156.66940785 525.19119064 -156.67258644 515.3932724 C-156.67348403 512.56908743 -156.67437385 509.74490245 -156.67526132 506.92071748 C-156.67548237 506.2185441 -156.67570341 505.51637073 -156.67593116 504.79291937 C-156.68208192 485.05282749 -156.68603207 465.31273616 -156.68558788 445.57264328 C-156.6855723 444.82899454 -156.68555673 444.08534579 -156.68554067 443.31916224 C-156.68545757 439.55036217 -156.68535853 435.78156211 -156.68525597 432.01276204 C-156.68523602 431.26431474 -156.68521608 430.51586745 -156.68519553 429.74473993 C-156.68515509 428.23119868 -156.68511329 426.71765743 -156.68507014 425.20411618 C-156.68445746 401.65867972 -156.69196404 378.11325766 -156.7056427 354.56782532 C-156.72101769 328.09178553 -156.72960809 301.6157552 -156.72867948 275.13971066 C-156.72860485 272.31426827 -156.72855614 269.48882588 -156.72852516 266.66338348 C-156.72851351 265.96772926 -156.72850185 265.27207504 -156.72848985 264.55534039 C-156.72845913 253.38256014 -156.73483251 242.20979245 -156.74345743 231.03701593 C-156.75195208 219.80027745 -156.75273873 208.56355703 -156.74634811 197.32681552 C-156.74308679 191.24488315 -156.74301225 185.16299608 -156.75170135 179.08106804 C-156.75958426 173.50597449 -156.75811664 167.93096201 -156.74941722 162.3558704 C-156.74788619 160.34653608 -156.74968332 158.33719566 -156.7552773 156.32786855 C-156.87009141 112.13595929 -143.11179111 74.08204557 -111.87483215 42.26069641 C-93.50793195 23.95178338 -71.77442645 12.34211381 -46.99983215 5.01069641 C-45.77357117 4.64101746 -45.77357117 4.64101746 -44.52253723 4.26387024 C-29.83280303 0.09949973 -15.13907074 -0.03032545 0 0 Z M-16.49983215 205.26069641 C-19.582902 208.86345038 -22.55313209 212.54592206 -25.49983215 216.26069641 C-26.71026184 217.76309875 -26.71026184 217.76309875 -27.94514465 219.29585266 C-47.55395009 243.92543778 -60.10182669 272.20377943 -65.49983215 303.26069641 C-65.83627747 305.19235657 -65.83627747 305.19235657 -66.17951965 307.16304016 C-73.22457523 353.28497591 -62.31840769 403.71244176 -34.99983215 441.63569641 C-34.48324036 442.3314679 -33.96664856 443.02723938 -33.43440247 443.74409485 C-32.95068176 444.39668274 -32.46696106 445.04927063 -31.96858215 445.72163391 C-31.53996887 446.28672668 -31.11135559 446.85181946 -30.66975403 447.43403625 C-28.7333801 450.45739806 -27.36457263 453.00354878 -27.75717163 456.65249634 C-27.99524033 457.48137863 -28.23330902 458.31026093 -28.47859192 459.16426086 C-28.87504662 460.58778618 -28.87504662 460.58778618 -29.2795105 462.04006958 C-29.58038071 463.05775925 -29.88125092 464.07544891 -30.1912384 465.12397766 C-30.49295456 466.18875839 -30.79467072 467.25353912 -31.10552979 468.35058594 C-32.07644481 471.76252163 -33.06925916 475.16765212 -34.06233215 478.57319641 C-34.70500686 480.82344846 -35.34629768 483.07409624 -35.98616028 485.32514954 C-39.01923282 495.94921422 -42.16410725 506.52982461 -45.50105286 517.06221008 C-46.71193699 520.93993998 -47.79157828 524.8289037 -48.81233215 528.76069641 C-49.13846497 530.00850891 -49.46459778 531.25632141 -49.8006134 532.54194641 C-50.03135559 533.43913391 -50.26209778 534.33632141 -50.49983215 535.26069641 C-43.79873798 533.31181953 -37.19965671 531.16809729 -30.6287384 528.81929016 C-29.71616776 528.49501541 -28.80359711 528.17074066 -27.8633728 527.8366394 C-25.92562175 527.14740978 -23.98830778 526.4569502 -22.05140686 525.76533508 C-19.0318274 524.68730582 -16.01078183 523.61346145 -12.98957825 522.53999329 C-4.22914658 519.42134088 4.52245759 516.28717503 13.2150116 512.98335266 C14.16207222 512.62484474 14.16207222 512.62484474 15.12826538 512.25909424 C17.94810676 511.19005405 20.7619043 510.10856253 23.56828308 509.0045929 C30.24442455 506.44996683 35.15293311 504.8791813 42.0587616 507.72944641 C43.35583985 508.39862355 44.64858244 509.07624857 45.93766785 509.76069641 C72.03854118 522.72217603 99.72724717 527.37512959 128.60173035 527.49897766 C129.81415972 527.50509095 129.81415972 527.50509095 131.05108261 527.51132774 C135.3202411 527.53204998 139.58936867 527.54641722 143.85856628 527.55586243 C148.24756427 527.56696865 152.6360612 527.6014562 157.02488136 527.64103413 C160.42222502 527.66723379 163.81944883 527.67555663 167.21688461 527.67914391 C168.8347199 527.68399194 170.45255048 527.69555468 172.0702858 527.7141819 C185.03585774 528.10068475 185.03585774 528.10068475 196.00032043 521.81314087 C200.82092684 516.36982866 201.97567483 512.20407104 201.80485535 505.07710266 C201.23312668 499.79227744 199.474512 496.11366695 195.59391785 492.47163391 C189.90636173 487.99374458 185.97943518 487.14391209 178.73478699 487.08711243 C178.06258118 487.08042542 177.39037537 487.0737384 176.69779968 487.06684875 C175.24044649 487.05282606 173.78307169 487.04092321 172.3256855 487.03090096 C170.00717595 487.01440236 167.68882275 486.99115496 165.37039185 486.96600342 C158.77888404 486.89551768 152.18730849 486.8355421 145.59562683 486.78388977 C141.55789172 486.75177583 137.52033161 486.71041254 133.4827404 486.66369438 C131.9556289 486.6478528 130.42847715 486.63545087 128.90130806 486.62678719 C86.24279311 486.38152897 46.20002849 469.84302502 15.94792175 439.74751282 C-6.82231547 416.36290158 -19.64752095 386.23525456 -24.49983215 354.26069641 C-24.69705872 353.00192688 -24.69705872 353.00192688 -24.89826965 351.71772766 C-29.65172947 314.39664451 -18.37396255 273.19619506 4.50016785 243.38569641 C14.83971376 230.31061112 26.33990838 218.21013536 40.50016785 209.26069641 C41.0833075 208.88590149 41.66644714 208.51110657 42.26725769 208.12495422 C71.01759482 189.8008829 101.59549577 184.10610542 135.22673035 184.09272766 C137.14326501 184.08950632 139.05979944 184.08614162 140.97633362 184.0826416 C144.98216826 184.07667916 148.98798143 184.07479866 152.99382019 184.07539368 C158.08011887 184.07549499 163.166277 184.06186158 168.2525425 184.04462147 C172.20955514 184.03339947 176.16653494 184.03147759 180.12356186 184.0320034 C181.99629067 184.03083786 183.86902074 184.02649824 185.74173355 184.01867104 C219.45877712 183.89095912 247.9045637 191.38406739 273.6759491 214.02632141 C279.03769858 218.26825876 283.29778809 219.8471576 290.0431366 219.60444641 C296.51310869 218.69926749 300.29254785 214.79872149 304.33610535 209.94429016 C306.59609019 206.67565436 306.66154912 203.67309722 306.68766785 199.82319641 C306.70184753 198.87573547 306.71602722 197.92827454 306.7306366 196.95210266 C306.49631303 194.21567997 305.89718167 192.59641518 304.50016785 190.26069641 C303.84016785 190.26069641 303.18016785 190.26069641 302.50016785 190.26069641 C302.42669128 189.69350891 302.35321472 189.12632141 302.2775116 188.54194641 C297.76801206 175.30803822 273.18741405 163.96875753 261.3946991 158.06929016 C242.56672162 149.1038175 222.24144834 144.12517184 201.37834167 144.0995636 C200.39653427 144.09459869 199.41472687 144.08963379 198.40316772 144.08451843 C195.17117086 144.06997822 191.93922323 144.06310518 188.7071991 144.05757141 C187.59336035 144.05474403 186.4795216 144.05191666 185.33193016 144.0490036 C179.42682537 144.03403696 173.5217448 144.02479401 167.61662292 144.02046204 C161.57437458 144.0150092 155.5323552 143.99104161 149.49017811 143.96249008 C144.79611612 143.94367574 140.10210695 143.93864802 135.40801048 143.93712616 C133.18411203 143.93413668 130.96021364 143.92623697 128.73635292 143.91294098 C74.50643109 143.61209331 20.24452729 164.1882754 -16.49983215 205.26069641 Z M234.50016785 257.07319641 C231.39688953 262.82719163 230.81388576 267.66075746 232.62516785 273.94819641 C234.90438945 279.92345305 238.86978045 283.32046933 244.41199875 286.413908 C248.39124151 288.02755924 252.45417062 287.80324363 256.69206238 287.75898743 C257.6932309 287.76450623 258.69439941 287.77002502 259.72590637 287.77571106 C261.89364287 287.78501185 264.06143401 287.78515218 266.22917557 287.77711678 C269.68028433 287.76442875 273.1305997 287.77583628 276.5816803 287.79315186 C283.92954575 287.82529645 291.27724584 287.82487934 298.62516785 287.82319641 C307.09989304 287.82571042 315.57437866 287.84198664 324.04902267 287.87963676 C327.41252265 287.88932763 330.77562372 287.88082829 334.13911438 287.87094116 C353.19775733 287.88958336 371.5545812 289.50335491 389.50016785 296.26069641 C390.23944519 296.53510559 390.97872253 296.80951477 391.74040222 297.09223938 C410.12896361 304.03979735 426.22098028 313.7210419 440.50016785 327.26069641 C441.06679138 327.79654358 441.63341492 328.33239075 442.21720886 328.88447571 C446.60109322 333.14118564 450.38800472 337.69731756 454.06266785 342.57319641 C454.63203064 343.32737854 455.20139343 344.08156067 455.78800964 344.8585968 C467.75743095 360.86892506 475.40357913 378.9779824 480.50016785 398.26069641 C480.67950867 398.93374817 480.85884949 399.60679993 481.04362488 400.30024719 C486.6501942 422.6986865 485.44015958 450.09912727 479.50016785 472.26069641 C479.27474304 473.11308899 479.04931824 473.96548157 478.81706238 474.84370422 C468.07460935 513.86076037 441.95131215 546.16199517 407.56266785 567.01069641 C384.13305979 580.1175132 357.28155997 587.94659595 330.42204285 588.61225891 C329.55357727 588.63595551 328.68511169 588.6596521 327.79032898 588.68406677 C324.94372502 588.75801557 322.09704879 588.82335075 319.25016785 588.88569641 C318.26995667 588.90748962 317.28974548 588.92928284 316.27983093 588.95173645 C301.09752353 589.27280502 285.93297362 589.29595391 270.75016785 589.01069641 C269.84939514 588.99790649 268.94862244 588.98511658 268.02055359 588.97193909 C252.33625237 588.73135584 237.48922395 587.15569856 222.62516785 581.82319641 C221.73732605 581.51897766 220.84948425 581.21475891 219.93473816 580.90132141 C215.31877219 579.30902489 210.78102432 577.58192303 206.25016785 575.76069641 C201.43434082 573.99005953 197.4326223 573.76455074 192.50016785 575.26069641 C186.83714 578.20111471 182.93011298 582.33580863 180.12516785 588.07319641 C178.93260824 594.15525043 179.61543221 599.32674409 182.56266785 604.82319641 C193.82929221 620.10222709 222.9469865 624.64820219 240.35173035 627.53413391 C251.47380341 629.16087168 262.50374895 629.43728002 273.7228241 629.46382141 C274.54082426 629.46664879 275.35882442 629.46947617 276.20161247 629.47238922 C280.54340296 629.48730752 284.88516095 629.4965795 289.22697449 629.50093079 C292.75735468 629.50528739 296.28748663 629.51907948 299.8177948 629.54194641 C342.11819599 629.8102691 383.96853172 626.67798304 421.02531433 603.86494446 C425.81067546 601.06481809 429.26354484 601.13428022 434.50016785 602.26069641 C437.78095744 603.23780771 440.96399879 604.42474477 444.1603241 605.64741516 C445.06785934 605.98690689 445.97539459 606.32639862 446.91043091 606.67617798 C449.7976429 607.75872185 452.68007676 608.85341611 455.56266785 609.94819641 C457.47058431 610.66445526 459.37878535 611.37995655 461.28727722 612.09468079 C469.50625098 615.18142682 477.70362208 618.31145882 485.84391785 621.60054016 C490.83558566 623.61497465 495.81720538 625.4776419 500.93766785 627.13569641 C501.58542175 627.34710266 502.23317566 627.55850891 502.90055847 627.77632141 C504.43231878 628.27556181 505.96600346 628.76889336 507.50016785 629.26069641 C506.89485836 624.43674622 505.95532845 619.89068197 504.64250183 615.21138 C504.45703796 614.54539291 504.2715741 613.87940582 504.08049011 613.1932373 C503.68080862 611.75992207 503.27915949 610.32715431 502.87571526 608.89489365 C502.23688963 606.62584556 501.60397246 604.35522234 500.97259521 602.08409119 C499.17757587 595.63154537 497.37143009 589.18212631 495.56291199 582.73335266 C494.4541153 578.77808101 493.35157901 574.82110574 492.25268745 570.86307144 C491.83374348 569.35931556 491.41231233 567.85625026 490.98832512 566.35390854 C490.39587025 564.25459075 489.81133703 562.15321191 489.22843933 560.05122375 C488.89392258 558.85766266 488.55940582 557.66410156 488.2147522 556.43437195 C486.67212676 549.58312673 486.67212676 549.58312673 488.82829285 546.13960266 C489.4625116 545.3751886 490.09673035 544.61077454 490.75016785 543.82319641 C501.75470879 529.30656793 509.44794846 512.35886556 515.50016785 495.26069641 C515.81856628 494.36318665 516.13696472 493.46567688 516.4650116 492.54096985 C530.00642494 453.72497077 530.37233136 411.78937963 516.31266785 373.01069641 C515.91829529 371.9216803 515.52392273 370.83266418 515.11759949 369.71064758 C512.0844293 361.50535422 508.66682683 353.67404056 504.45768738 346.00776672 C503.52134085 344.29932823 502.61773781 342.57307311 501.7150116 340.84663391 C493.0485595 324.83853768 481.68464962 310.69357223 468.95280457 297.75288391 C467.75433189 296.52178055 466.59262727 295.2549968 465.4415741 293.97944641 C455.46575857 283.13713465 441.46549605 274.99888669 428.50016785 268.26069641 C427.55850769 267.76642151 427.55850769 267.76642151 426.5978241 267.26216125 C402.47448028 254.77653949 375.38906823 248.18228375 348.24821472 248.06782532 C347.15920364 248.05964783 346.07019257 248.05147034 344.94818115 248.04304504 C341.37176543 248.01838478 337.79538869 248.00173073 334.21891785 247.98725891 C332.99172531 247.98193523 331.76453278 247.97661156 330.50015259 247.97112656 C324.01237108 247.94448746 317.52460826 247.9250777 311.03678894 247.91059875 C305.67888226 247.89821905 300.32130561 247.86998237 294.96354675 247.8285675 C288.47570393 247.77923844 281.98820545 247.75447875 275.50018311 247.74737167 C273.03468049 247.74066702 270.56918535 247.72546563 268.10379028 247.70148087 C264.65282647 247.66980485 261.20319245 247.66979619 257.75212097 247.67720032 C256.74198441 247.66079498 255.73184784 247.64438965 254.69110107 247.62748718 C246.29863135 247.70096138 239.48718189 250.02365604 234.50016785 257.07319641 Z M118.50016785 373.26069641 C114.18125759 380.17882925 112.2695066 386.86773502 114.1134491 394.94819641 C116.77110687 403.37777173 121.22264863 408.46721448 128.56266785 413.26069641 C135.44327115 415.68634688 145.22616684 415.72618693 151.93766785 412.82319641 C159.17394897 408.32027039 164.14635839 401.87832609 166.0978241 393.60054016 C167.50239185 385.43222868 165.5357898 379.81815537 161.0275116 373.04975891 C156.13019529 366.82102091 150.55719195 363.94542746 142.7306366 362.88569641 C133.15368369 362.45707754 124.85079294 366.01933429 118.50016785 373.26069641 Z M206.50016785 372.26069641 C205.77829285 373.06507141 205.05641785 373.86944641 204.31266785 374.69819641 C200.02576914 380.75898424 199.85411205 387.06178892 200.50016785 394.26069641 C201.96226053 401.31314348 205.8477735 406.64050047 211.65641785 410.80757141 C218.40050014 414.70512547 224.83959569 415.39943011 232.50016785 414.26069641 C240.45947658 411.94385027 245.22949819 407.22076736 249.50016785 400.26069641 C252.50276355 394.25550501 252.65169571 386.94558557 250.6603241 380.57319641 C247.30331112 373.15837987 242.14350402 367.60392492 234.62516785 364.32319641 C223.88707331 360.96097503 213.81289007 363.69436467 206.50016785 372.26069641 Z M292.50016785 373.26069641 C287.2725558 380.5212687 286.62573403 386.43595052 287.50016785 395.26069641 C289.60801077 402.19861886 293.43416821 407.32105794 299.50016785 411.26069641 C306.63577083 415.02310525 313.43391887 416.14055821 321.20329285 414.10444641 C329.29379847 411.13242394 334.61679417 405.88875184 338.50016785 398.26069641 C340.61443127 391.90493521 340.6842866 383.90222804 337.81266785 377.82319641 C334.03188864 371.4157706 328.50974099 367.12561415 321.81266785 364.01069641 C310.31268494 361.4069267 300.2059567 363.96842162 292.50016785 373.26069641 Z " fill="#135FEB" transform="translate(231.4998321533203,80.73930358886719)"/>
<path d="M0 0 C2.15326449 -0.00302514 4.30652791 -0.00691644 6.45978945 -0.01159257 C12.34278838 -0.02183446 18.2257261 -0.01970049 24.10872996 -0.01541197 C30.46674984 -0.01293782 36.82475525 -0.02196744 43.18276978 -0.02944946 C55.62556728 -0.04217922 68.06834253 -0.04399808 80.51114539 -0.0416492 C90.62791285 -0.03981294 100.74467399 -0.04158312 110.86144066 -0.04587364 C112.31751056 -0.04647606 113.77358047 -0.04707725 115.22965037 -0.04767724 C117.42409763 -0.04858455 119.61854488 -0.04949322 121.81299213 -0.0504096 C142.2021834 -0.05883289 162.5913723 -0.06317911 182.98056507 -0.05900288 C184.1322784 -0.05876831 184.1322784 -0.05876831 185.30725866 -0.05852901 C189.19837166 -0.05772329 193.08948466 -0.05687752 196.98059765 -0.05601571 C197.75331551 -0.05584462 198.52603336 -0.05567353 199.32216691 -0.05549726 C200.88478782 -0.0551506 202.44740872 -0.05480207 204.01002962 -0.05445167 C228.32129122 -0.04909517 252.63251653 -0.05702542 276.94377136 -0.07548523 C304.28966142 -0.0962252 331.63552901 -0.10692418 358.98142737 -0.10290974 C361.90010082 -0.10251443 364.81877428 -0.10215288 367.73744774 -0.10181236 C368.81533789 -0.10167627 368.81533789 -0.10167627 369.91500359 -0.10153742 C380.73775656 -0.10037403 391.56048675 -0.10699994 402.38323402 -0.11762428 C414.69899926 -0.12970232 427.01470494 -0.13092831 439.33047203 -0.11883412 C445.60914208 -0.11295472 451.88771453 -0.11182012 458.16637802 -0.12383652 C463.92344945 -0.13472628 469.68034214 -0.13155518 475.43740531 -0.11757483 C477.51061469 -0.11493643 479.58383821 -0.11726722 481.65703366 -0.1253107 C497.68050894 -0.1831209 513.11965128 1.11431978 528.50016785 5.94819641 C529.32355652 6.20310852 530.14694519 6.45802063 530.99528503 6.72065735 C552.93214023 13.74750304 573.22568693 25.11747941 589.1603241 41.94819641 C590.48679714 43.38169074 590.48679714 43.38169074 592.50016785 44.26069641 C592.50016785 44.92069641 592.50016785 45.58069641 592.50016785 46.26069641 C593.16016785 46.26069641 593.82016785 46.26069641 594.50016785 46.26069641 C619.69694892 68.51533838 632.07050844 106.91179198 634.50016785 139.26069641 C634.82746034 146.26259335 634.77128118 153.27204922 634.75413513 160.27972412 C634.75644427 162.35634328 634.75962382 164.43296163 634.76358962 166.50957829 C634.77188402 172.17143248 634.76783686 177.83321863 634.76161718 183.49507296 C634.75707161 189.61856126 634.76408688 195.74203827 634.76957703 201.86552429 C634.77793854 213.15315337 634.77723922 224.44075497 634.77175409 235.72838335 C634.76671069 246.15901306 634.76541528 256.5896349 634.76779938 267.02026558 C634.76802853 268.060593 634.76802853 268.060593 634.76826232 269.12193713 C634.76888506 271.93773695 634.76952187 274.75353677 634.77018184 277.56933658 C634.7762916 303.95155636 634.77076614 330.33376248 634.75998805 356.71598015 C634.75049882 380.12127375 634.75134617 403.52654558 634.76091003 426.93183899 C634.77163497 453.26620364 634.77585715 479.60055623 634.76968551 505.93492275 C634.76904413 508.74571899 634.76841845 511.55651523 634.76779938 514.36731148 C634.76764122 515.05933205 634.76748307 515.75135262 634.76732012 516.46434351 C634.76505153 526.88410421 634.76769386 537.30385616 634.77275848 547.72361565 C634.7784929 559.58001962 634.77682236 571.43639795 634.766197 583.29280096 C634.76095843 589.33653408 634.75885247 595.38022316 634.7654953 601.42395592 C634.77149464 606.96626685 634.76811446 612.50849327 634.7575402 618.05079664 C634.75532295 620.04588407 634.75640432 622.04097878 634.76129177 624.03606146 C634.86095683 668.13430201 622.59799615 707.07362719 591.50016785 739.26069641 C590.9872821 739.79694641 590.47439636 740.33319641 589.94596863 740.88569641 C585.89649515 745.04320133 581.66287999 748.68527781 577.00016785 752.13569641 C576.30512146 752.65035461 575.61007507 753.16501282 574.89396667 753.69526672 C554.11143652 768.86375968 530.21085805 779.24746902 504.50016785 782.26069641 C503.84504861 782.34291405 503.18992936 782.4251317 502.51495802 782.50984079 C492.70166314 783.58180898 482.86350852 783.40276063 473.00611877 783.39440918 C470.91334194 783.39627898 468.82056546 783.39858036 466.72778952 783.4012745 C460.99345932 783.40737799 455.25914373 783.40726062 449.52481103 783.40608013 C443.33375338 783.40587575 437.14270037 783.41139839 430.9516449 783.4161377 C418.82814823 783.42443692 406.7046582 783.42720519 394.58115928 783.42775007 C384.72411002 783.42821019 374.86706233 783.43027154 365.01001358 783.4334507 C362.16929201 783.43434829 359.32857045 783.4352381 356.48784888 783.43612558 C355.42842871 783.43645715 355.42842871 783.43645715 354.34760611 783.43679542 C334.48927222 783.44294703 314.63093887 783.44689625 294.77260399 783.44645214 C294.02436587 783.44643656 293.27612774 783.44642098 292.50521574 783.44640493 C288.71312316 783.44632183 284.92103058 783.44622279 281.128938 783.44612022 C280.37586075 783.44610028 279.62278349 783.44608033 278.84688571 783.44605978 C277.32398046 783.44601935 275.80107521 783.44597755 274.27816996 783.44593439 C250.59190921 783.44532184 226.90566278 783.45282565 203.21940613 783.46650696 C176.58661579 783.48188399 149.95383486 783.4904722 123.3210398 783.48954374 C120.4784321 783.48946911 117.6358244 783.4894204 114.79321671 783.48938942 C114.09333396 783.48937777 113.39345121 783.48936611 112.67235989 783.4893541 C101.43370405 783.48932339 90.1950607 783.4956957 78.95640857 783.50432168 C67.65119647 783.51281898 56.34600747 783.51360106 45.04079215 783.50721236 C38.92228814 783.50395225 32.80382914 783.5038721 26.68532944 783.51256561 C21.07560261 783.52045401 15.46595632 783.51897533 9.85623141 783.51028148 C7.83540938 783.50875164 5.81458127 783.51054303 3.79376642 783.51614156 C-11.07960494 783.55459203 -25.81706605 782.91288702 -40.37483215 779.57319641 C-41.10838928 779.40513489 -41.84194641 779.23707336 -42.59773254 779.06391907 C-67.09162563 773.14220448 -88.73968549 761.44572044 -107.1990509 744.37007141 C-109.27115855 742.47034623 -111.39824346 740.6784326 -113.56233215 738.88569641 C-135.17127092 719.8646545 -147.51868138 691.38487568 -153.81233215 663.88569641 C-153.97177307 663.19757874 -154.13121399 662.50946106 -154.29548645 661.80049133 C-157.04888149 648.96599522 -156.64468278 635.80462156 -156.63354492 622.7535553 C-156.63541513 620.67157712 -156.63771667 618.58959928 -156.64041024 616.507622 C-156.64650861 610.80782524 -156.64639697 605.10804318 -156.64521587 599.40824389 C-156.64501137 593.25266975 -156.65053531 587.09710028 -156.65527344 580.94152832 C-156.66356957 568.89002636 -156.66634078 556.83853062 -156.66688582 544.78702655 C-156.66734603 534.9891078 -156.66940785 525.19119064 -156.67258644 515.3932724 C-156.67348403 512.56908743 -156.67437385 509.74490245 -156.67526132 506.92071748 C-156.67548237 506.2185441 -156.67570341 505.51637073 -156.67593116 504.79291937 C-156.68208192 485.05282749 -156.68603207 465.31273616 -156.68558788 445.57264328 C-156.6855723 444.82899454 -156.68555673 444.08534579 -156.68554067 443.31916224 C-156.68545757 439.55036217 -156.68535853 435.78156211 -156.68525597 432.01276204 C-156.68523602 431.26431474 -156.68521608 430.51586745 -156.68519553 429.74473993 C-156.68515509 428.23119868 -156.68511329 426.71765743 -156.68507014 425.20411618 C-156.68445746 401.65867972 -156.69196404 378.11325766 -156.7056427 354.56782532 C-156.72101769 328.09178553 -156.72960809 301.6157552 -156.72867948 275.13971066 C-156.72860485 272.31426827 -156.72855614 269.48882588 -156.72852516 266.66338348 C-156.72851351 265.96772926 -156.72850185 265.27207504 -156.72848985 264.55534039 C-156.72845913 253.38256014 -156.73483251 242.20979245 -156.74345743 231.03701593 C-156.75195208 219.80027745 -156.75273873 208.56355703 -156.74634811 197.32681552 C-156.74308679 191.24488315 -156.74301225 185.16299608 -156.75170135 179.08106804 C-156.75958426 173.50597449 -156.75811664 167.93096201 -156.74941722 162.3558704 C-156.74788619 160.34653608 -156.74968332 158.33719566 -156.7552773 156.32786855 C-156.87009141 112.13595929 -143.11179111 74.08204557 -111.87483215 42.26069641 C-93.50793195 23.95178338 -71.77442645 12.34211381 -46.99983215 5.01069641 C-45.77357117 4.64101746 -45.77357117 4.64101746 -44.52253723 4.26387024 C-29.83280303 0.09949973 -15.13907074 -0.03032545 0 0 Z M-105.99201965 40.96382141 C-108.49983215 43.26069641 -108.49983215 43.26069641 -111.04670715 45.23335266 C-115.54301367 48.94924929 -118.88762058 53.70943504 -122.49983215 58.26069641 C-123.08893372 58.96065735 -123.67803528 59.66061829 -124.2849884 60.38179016 C-142.94018209 83.006174 -153.68818939 113.85527801 -153.63405323 143.10352421 C-153.63640546 143.97452244 -153.63875769 144.84552068 -153.6411812 145.7429128 C-153.64784245 148.66389743 -153.64741385 151.58483728 -153.64700317 154.50582886 C-153.65030361 156.62046388 -153.65402956 158.73509827 -153.65814465 160.84973186 C-153.66815271 166.66325436 -153.67187954 172.47676654 -153.67453396 178.29029644 C-153.67844067 184.55991419 -153.6880189 190.8295238 -153.69674683 197.09913635 C-153.71556916 211.52777032 -153.72576694 225.9564033 -153.73420751 240.38504649 C-153.73841799 247.52155384 -153.74363954 254.65806035 -153.74889204 261.79456699 C-153.76678329 286.24262068 -153.78177624 310.69067461 -153.78921223 335.13873386 C-153.78968698 336.67311728 -153.79016287 338.20750069 -153.79063989 339.74188411 C-153.79087626 340.50277374 -153.79111264 341.26366337 -153.79135618 342.04761027 C-153.79255733 345.90241177 -153.7937728 349.75721327 -153.79499817 353.61201477 C-153.79523832 354.37700185 -153.79547847 355.14198894 -153.7957259 355.93015745 C-153.803611 380.70805578 -153.82702598 405.48590612 -153.85955411 430.26378352 C-153.89391218 456.48368072 -153.91356903 482.70354988 -153.91685647 508.92346996 C-153.91727397 511.80639105 -153.91775353 514.68931213 -153.91827965 517.5722332 C-153.91840284 518.28204689 -153.91852603 518.99186058 -153.91865296 519.72318377 C-153.92097787 531.1098652 -153.9365984 542.49649059 -153.95712149 553.8831521 C-153.97745626 565.34802578 -153.98248952 576.81280791 -153.97335086 588.27770097 C-153.96882056 594.4798847 -153.97061826 600.68188784 -153.9901123 606.88404655 C-154.00784808 612.57630498 -154.00666238 618.26825245 -153.99121501 623.96051466 C-153.98885464 626.00577461 -153.99307957 628.0510567 -154.00504366 630.09628303 C-154.20025586 665.71035316 -143.94603559 698.56400738 -121.16389465 726.20210266 C-119.49983215 728.26069641 -119.49983215 728.26069641 -117.49983215 731.26069641 C-116.83983215 731.26069641 -116.17983215 731.26069641 -115.49983215 731.26069641 C-115.25233215 731.83819641 -115.00483215 732.41569641 -114.74983215 733.01069641 C-113.31683227 735.5900962 -111.71558539 737.32191233 -109.49983215 739.26069641 C-108.83983215 739.26069641 -108.17983215 739.26069641 -107.49983215 739.26069641 C-107.49983215 739.92069641 -107.49983215 740.58069641 -107.49983215 741.26069641 C-81.3585647 765.66252591 -46.00888824 780.47131988 -10.23262882 780.39212418 C-9.35220514 780.39417681 -8.47178147 780.39622944 -7.56467828 780.39834428 C-4.62972355 780.40397545 -1.69481632 780.40256186 1.24014282 780.40113831 C3.37187935 780.40372417 5.50361539 780.40673795 7.63535076 780.41014171 C13.48209326 780.41818894 19.32882347 780.42000001 25.17557085 780.42073917 C31.48597756 780.4225937 37.79637796 780.43014304 44.10678101 780.43687439 C58.61935218 780.45114922 73.13192014 780.45698217 87.64449702 780.46156633 C94.82257807 780.46390548 102.00065833 780.46750848 109.17873877 780.47126171 C133.77032165 780.48409454 158.3619041 780.49481386 182.95349026 780.49826431 C184.49600717 780.49848594 186.03852407 780.49870773 187.58104098 780.49892966 C189.12719081 780.4991503 190.67334064 780.49937078 192.21949047 780.49959111 C195.32110624 780.50003365 198.422722 780.50048077 201.52433777 780.50093079 C202.67786061 780.50109487 202.67786061 780.50109487 203.85468695 780.50126227 C228.77900135 780.50489132 253.70328664 780.52080698 278.62758989 780.54412115 C305.0051012 780.56874935 331.38259588 780.58243854 357.76011902 780.58363223 C360.65894799 780.58380367 363.55777695 780.5840191 366.45660591 780.58426666 C367.52719477 780.58435032 367.52719477 780.58435032 368.61941169 780.58443566 C380.07624627 780.5855835 391.53305083 780.59658269 402.98987529 780.61115372 C414.51817303 780.62556147 426.04641858 780.62848034 437.5747255 780.62071374 C443.81298228 780.61681679 450.05113862 780.61769015 456.28938293 780.63177109 C462.01092749 780.64456713 467.73229671 780.64326264 473.45384122 780.63118038 C475.5130878 780.62923323 477.57234704 780.63225583 479.63157587 780.64102474 C516.37817403 780.78747628 551.46188951 770.95405733 579.50016785 746.26069641 C580.75700378 745.16628235 580.75700378 745.16628235 582.03923035 744.04975891 C611.03884974 718.37940096 628.58553199 684.27459592 631.72479586 645.48514186 C632.06235822 639.02559257 632.0348989 632.56884118 632.00137329 626.10253906 C632.00527839 623.97536611 632.01092842 621.84819579 632.01814419 619.72103149 C632.03274253 613.94724324 632.0228118 608.17373208 632.00840747 602.39995325 C631.99721198 596.14568148 632.00926827 589.8914459 632.01824951 583.63717651 C632.03132542 572.11882225 632.02644621 560.60059027 632.01217423 549.08224502 C631.99907504 538.44077607 631.99393559 527.79933849 631.99649239 517.15786171 C631.9966528 516.44947272 631.99681322 515.74108373 631.99697849 515.01122841 C631.99764217 512.13504006 631.9983446 509.25885173 631.99910383 506.3826634 C632.0061121 479.45788061 631.99068828 452.53315298 631.96448037 425.60838422 C631.94135647 401.72546252 631.93598347 377.84260139 631.94621277 353.95967102 C631.94881512 347.83951921 631.95140023 341.7193674 631.95381069 335.59921551 C631.95425686 334.46875796 631.95425686 334.46875796 631.95471205 333.3154629 C631.96233738 313.31090975 631.95590569 293.30636151 631.94511467 273.30181056 C631.94396696 271.14784979 631.94282378 268.99388901 631.94168785 266.83992823 C631.94093261 265.41127844 631.94016696 263.98262866 631.93939084 262.55397888 C631.93374886 251.91982761 631.93505127 241.28569206 631.93961906 230.65154076 C631.9447412 218.55554786 631.93851308 206.45962818 631.91872477 194.36364498 C631.90888546 188.19833897 631.90371133 182.03312793 631.91161728 175.86781693 C631.91871795 170.21467874 631.91176766 164.56173148 631.89401365 158.90861831 C631.88999755 156.87333642 631.89092074 154.83803687 631.89753252 152.80276176 C632.00791289 115.61709077 621.00321376 83.32421904 597.50016785 54.26069641 C597.01290222 53.63807922 596.5256366 53.01546204 596.02360535 52.37397766 C594.89821968 50.96230968 593.70598069 49.60431644 592.50016785 48.26069641 C591.84016785 48.26069641 591.18016785 48.26069641 590.50016785 48.26069641 C590.50016785 47.60069641 590.50016785 46.94069641 590.50016785 46.26069641 C589.84016785 46.26069641 589.18016785 46.26069641 588.50016785 46.26069641 C588.50016785 45.60069641 588.50016785 44.94069641 588.50016785 44.26069641 C574.70952586 29.61827948 555.11940046 18.43992828 536.50016785 11.26069641 C535.27684753 10.78761047 534.05352722 10.31452454 532.7931366 9.82710266 C517.36975845 4.29176886 500.73369655 2.09236549 484.38190079 2.12926865 C483.51757126 2.12721601 482.65324174 2.12516338 481.76272041 2.12304854 C478.88248397 2.11741905 476.00229598 2.11883075 473.12205505 2.12025452 C471.0295798 2.11766854 468.93710504 2.11465474 466.84463096 2.11125112 C461.10629442 2.10320494 455.36797041 2.10139287 449.6296289 2.10065365 C443.43573024 2.0987989 437.24183803 2.09124938 431.04794312 2.08451843 C416.80248282 2.07024361 402.55702662 2.06441037 388.31156068 2.05982649 C381.26403879 2.05748702 374.21651771 2.05388395 367.16899645 2.05013111 C343.02021353 2.03729738 318.87143106 2.02657885 294.72264481 2.02312851 C293.20786849 2.02290688 291.69309218 2.0226851 290.17831586 2.02246316 C288.65998514 2.02224252 287.14165441 2.02202204 285.62332368 2.02180171 C282.57755168 2.02135917 279.53177969 2.02091205 276.48600769 2.02046204 C275.35325364 2.02029795 275.35325364 2.02029795 274.19761566 2.02013055 C249.73078663 2.01650279 225.26398728 2.00059244 200.7971696 1.97727167 C174.89850662 1.95263151 148.99986059 1.9389537 123.10118556 1.93776059 C120.25369819 1.93758915 117.40621082 1.93737373 114.55872345 1.93712616 C113.85764816 1.93707039 113.15657288 1.93701462 112.43425289 1.93695716 C101.19001247 1.93581026 89.9458027 1.92481898 78.7015726 1.9102391 C67.38158279 1.89581576 56.06164288 1.89292069 44.74164245 1.90067908 C38.61845343 1.90457065 32.49536673 1.90372937 26.37219048 1.88962173 C20.75226125 1.87679274 15.13251026 1.87815848 9.51258096 1.89021245 C7.49365755 1.892154 5.47472112 1.8891636 3.45581594 1.88036808 C-37.75399656 1.71239154 -75.41116773 12.29997812 -105.99201965 40.96382141 Z " fill="#1C61DE" transform="translate(231.4998321533203,80.73930358886719)"/>
<path d="M0 0 C1.36066086 -0.00525696 1.36066086 -0.00525696 2.74880981 -0.01062012 C5.73439307 -0.01938543 8.71973675 -0.01359819 11.70532227 -0.00683594 C13.80876205 -0.00818605 15.91220153 -0.01012946 18.01564026 -0.01263428 C22.42956506 -0.01558021 26.84340886 -0.01131226 31.25732422 -0.00195312 C36.84035228 0.00932328 42.42318734 0.00276452 48.00620842 -0.00883007 C106.66713221 -0.11254324 106.66713221 -0.11254324 132.58422852 6.25878906 C133.31544922 6.43780762 134.04666992 6.61682617 134.80004883 6.80126953 C157.44926571 12.5222637 179.49101122 23.49334334 197.58422852 38.25878906 C198.11886719 38.68272949 198.65350586 39.10666992 199.2043457 39.54345703 C206.11308995 45.02439413 212.05391815 50.5867066 217.48266602 57.59472656 C219.52609183 60.18509163 221.69232162 62.55121782 223.95922852 64.94628906 C233.99057636 76.00873364 241.70380705 89.06519718 248.58422852 102.25878906 C248.8984375 102.85981445 249.21264648 103.46083984 249.53637695 104.08007812 C254.77500102 114.27219304 258.35718368 124.92006843 261.79956055 135.82763672 C262.30950095 137.4075952 262.84066573 138.98091503 263.39624023 140.54541016 C265.33825319 146.02796373 266.42515914 151.37673335 267.20922852 157.13378906 C267.33402588 158.01800537 267.45882324 158.90222168 267.58740234 159.81323242 C267.93144728 162.29368909 268.26111996 164.77553043 268.58422852 167.25878906 C268.71958008 168.27328125 268.85493164 169.28777344 268.99438477 170.33300781 C271.1011796 189.23481503 269.26896482 208.36076709 265.64672852 226.94628906 C265.48914063 227.75960693 265.33155273 228.5729248 265.16918945 229.41088867 C264.24966947 233.86337398 263.03867481 238.01060078 261.36767578 242.23706055 C260.54332105 244.36435301 259.82045273 246.50837618 259.11157227 248.67675781 C252.95014938 267.29963896 244.92690797 284.37432858 233.66235352 300.46386719 C231.48223756 304.0934443 230.43283036 306.27351674 231.0962677 310.59104919 C231.45299057 311.85868607 231.80971344 313.12632294 232.17724609 314.43237305 C232.46700569 315.48702759 232.46700569 315.48702759 232.76261902 316.56298828 C233.40339276 318.88130093 234.06601823 321.19276392 234.72875977 323.50488281 C235.17908393 325.11963545 235.62793039 326.73480085 236.07536316 328.35035706 C237.25659387 332.60160932 238.45601577 336.84750858 239.65985107 341.09240723 C241.35081805 347.0677268 243.01689313 353.05004367 244.68595886 359.0315094 C245.57442912 362.21524149 246.46961056 365.39696399 247.37031555 368.57725525 C247.78123896 370.0367682 248.19214386 371.49628636 248.60302734 372.95581055 C249.14169182 374.85845924 249.14169182 374.85845924 249.6912384 376.79954529 C250.50382153 379.94731039 251.1089047 383.04481496 251.58422852 386.25878906 C247.53987304 387.60690755 245.0294639 386.19870802 241.23266602 384.72363281 C240.50036774 384.44789932 239.76806946 384.17216583 239.01358032 383.88807678 C236.65873156 382.99950021 234.30892053 382.09840296 231.95922852 381.19628906 C228.90574946 380.03553987 225.85040313 378.87974496 222.79516602 377.72363281 C222.03700592 377.43547195 221.27884583 377.1473111 220.49771118 376.85041809 C214.44284043 374.557393 208.35190818 372.37904457 202.23251343 370.26451111 C198.24189555 368.87831106 194.34082787 367.36272766 190.45922852 365.69628906 C189.0419043 365.11621094 189.0419043 365.11621094 187.59594727 364.52441406 C185.38471089 363.59517854 183.203013 362.594831 181.04125977 361.55566406 C175.8206645 359.2247728 171.6579998 357.57871736 165.96313477 359.44628906 C162.72809758 361.10731167 159.6941581 363.08553275 156.63110352 365.04052734 C153.02716808 367.18552232 149.20262985 368.78009641 145.33422852 370.38378906 C144.53533203 370.71499756 143.73643555 371.04620605 142.91333008 371.38745117 C131.22496228 376.12575726 119.28515162 379.83698492 106.95922852 382.50878906 C106.26893555 382.65993164 105.57864258 382.81107422 104.86743164 382.96679688 C90.16100838 385.94710132 75.5154259 386.56307059 60.56079102 386.52441406 C58.68004303 386.52576692 56.79929539 386.52771257 54.91854858 386.5302124 C51.00401432 386.53313596 47.08957224 386.52895729 43.17504883 386.51953125 C38.21465496 386.50815443 33.25447808 386.5147029 28.29409218 386.52667618 C24.41763748 386.53398395 20.54123223 386.53156622 16.66477585 386.52642059 C14.8383621 386.52510776 13.01194352 386.52664635 11.18553543 386.5313797 C-4.96137803 386.56405581 -21.20809677 385.97388348 -36.85327148 381.63378906 C-38.27434204 381.2511792 -38.27434204 381.2511792 -39.72412109 380.86083984 C-51.4623432 377.57683363 -64.63519544 373.80156931 -74.41577148 366.25878906 C-74.41577148 365.59878906 -74.41577148 364.93878906 -74.41577148 364.25878906 C-75.07577148 364.25878906 -75.73577148 364.25878906 -76.41577148 364.25878906 C-80.83466883 356.84644513 -82.62982096 350.83893721 -81.02514648 342.14160156 C-79.25168466 336.29827222 -75.40313606 332.64723209 -70.41577148 329.25878906 C-69.75577148 329.25878906 -69.09577148 329.25878906 -68.41577148 329.25878906 C-68.08577148 328.59878906 -67.75577148 327.93878906 -67.41577148 327.25878906 C-57.20023719 326.04104325 -50.20349674 328.15861978 -40.94628906 332.11865234 C-17.25782216 342.22316249 7.92274233 341.59046062 33.21777344 341.51953125 C37.32401946 341.50812954 41.43000404 341.51472647 45.53624058 341.52667618 C48.75984065 341.53399564 51.98338144 341.5315615 55.20698357 341.52642059 C56.71883108 341.52511226 58.23068448 341.52662938 59.7425251 341.5313797 C74.85112078 341.56847366 89.84846192 340.4412543 104.52172852 336.63378906 C105.52969482 336.37581543 106.53766113 336.1178418 107.57617188 335.85205078 C117.33805617 333.24076792 126.4886315 329.63465605 135.58422852 325.25878906 C136.5785791 324.7833667 136.5785791 324.7833667 137.59301758 324.29833984 C154.3023846 316.17116663 168.50624801 305.39891619 181.58422852 292.25878906 C182.51106445 291.33195312 183.43790039 290.40511719 184.39282227 289.45019531 C213.64772314 258.73483137 223.54156632 218.12427697 222.71606445 176.859375 C221.35397617 139.65923046 201.56956325 104.8159063 174.95922852 79.75878906 C163.933344 69.68744226 151.13931518 62.37130584 137.58422852 56.25878906 C136.89522461 55.94280762 136.2062207 55.62682617 135.49633789 55.30126953 C115.87617904 46.46495145 95.49008218 44.66445677 74.18003845 44.7423687 C70.63909484 44.75525168 67.09890208 44.7434879 63.5579834 44.72633362 C57.33350974 44.69994717 51.10922812 44.69402715 44.88470459 44.69543457 C34.86990189 44.69768628 24.85533252 44.68349843 14.84062195 44.63984871 C11.36232955 44.63005001 7.88441225 44.63869691 4.40612793 44.64854431 C2.27734126 44.64240216 0.14855661 44.63549112 -1.98022461 44.62768555 C-3.41711891 44.63926445 -3.41711891 44.63926445 -4.88304138 44.65107727 C-10.52597002 44.60840129 -14.39001804 43.85031715 -19.41577148 41.25878906 C-20.30264648 40.84628906 -21.18952148 40.43378906 -22.10327148 40.00878906 C-26.25977231 36.86332897 -28.40894678 32.3504454 -29.41577148 27.25878906 C-30.1274136 20.39902569 -29.57146158 14.89698658 -25.41577148 9.25878906 C-18.17676758 1.13893292 -10.43810907 -0.05036845 0 0 Z M-24.41577148 12.07128906 C-27.5190498 17.82528428 -28.10205357 22.65885011 -26.29077148 28.94628906 C-24.01154988 34.9215457 -20.04615888 38.31856198 -14.50394058 41.41200066 C-10.52469782 43.02565189 -6.46176871 42.80133628 -2.22387695 42.75708008 C-1.22270844 42.76259888 -0.22153992 42.76811768 0.80996704 42.77380371 C2.97770354 42.7831045 5.14549468 42.78324483 7.31323624 42.77520943 C10.764345 42.7625214 14.21466037 42.77392893 17.66574097 42.79124451 C25.01360642 42.8233891 32.36130651 42.82297199 39.70922852 42.82128906 C48.18395371 42.82380307 56.65843932 42.84007929 65.13308334 42.87772942 C68.49658332 42.88742028 71.85968439 42.87892094 75.22317505 42.86903381 C94.28181799 42.88767601 112.63864187 44.50144756 130.58422852 51.25878906 C131.32350586 51.53319824 132.0627832 51.80760742 132.82446289 52.09033203 C151.21302428 59.03789 167.30504095 68.71913455 181.58422852 82.25878906 C182.15085205 82.79463623 182.71747559 83.3304834 183.30126953 83.88256836 C187.68515389 88.13927829 191.47206539 92.69541022 195.14672852 97.57128906 C195.71609131 98.32547119 196.2854541 99.07965332 196.87207031 99.85668945 C208.84149162 115.86701771 216.4876398 133.97607505 221.58422852 153.25878906 C221.76356934 153.93184082 221.94291016 154.60489258 222.12768555 155.29833984 C227.73425487 177.69677915 226.52422025 205.09721992 220.58422852 227.25878906 C220.35880371 228.11118164 220.13337891 228.96357422 219.90112305 229.84179688 C209.15867002 268.85885302 183.03537282 301.16008782 148.64672852 322.00878906 C125.21712046 335.11560585 98.36562064 342.94468861 71.50610352 343.61035156 C70.63763794 343.63404816 69.76917236 343.65774475 68.87438965 343.68215942 C66.02778569 343.75610822 63.18110945 343.8214434 60.33422852 343.88378906 C59.35401733 343.90558228 58.37380615 343.92737549 57.3638916 343.9498291 C42.1815842 344.27089767 27.01703429 344.29404656 11.83422852 344.00878906 C10.93345581 343.99599915 10.03268311 343.98320923 9.10461426 343.97003174 C-6.57968696 343.7294485 -21.42671538 342.15379121 -36.29077148 336.82128906 C-37.17861328 336.51707031 -38.06645508 336.21285156 -38.98120117 335.89941406 C-43.59716714 334.30711754 -48.13491501 332.58001568 -52.66577148 330.75878906 C-57.48159851 328.98815219 -61.48331703 328.76264339 -66.41577148 330.25878906 C-72.07879933 333.19920737 -75.98582635 337.33390129 -78.79077148 343.07128906 C-79.98333109 349.15334308 -79.30050712 354.32483675 -76.35327148 359.82128906 C-65.08664712 375.10031974 -35.96895283 379.64629484 -18.56420898 382.53222656 C-7.44213592 384.15896433 3.58780962 384.43537267 14.80688477 384.46191406 C15.62488493 384.46474144 16.44288509 384.46756882 17.28567314 384.47048187 C21.62746363 384.48540017 25.96922162 384.49467215 30.31103516 384.49902344 C33.84141535 384.50338004 37.3715473 384.51717213 40.90185547 384.54003906 C83.20225666 384.80836175 125.05259239 381.67607569 162.109375 358.86303711 C166.89473613 356.06291074 170.34760551 356.13237287 175.58422852 357.25878906 C178.8650181 358.23590036 182.04805946 359.42283742 185.24438477 360.64550781 C186.15192001 360.98499954 187.05945526 361.32449127 187.99449158 361.67427063 C190.88170357 362.7568145 193.76413743 363.85150877 196.64672852 364.94628906 C198.55464498 365.66254791 200.46284602 366.3780492 202.37133789 367.09277344 C210.59031165 370.17951947 218.78768275 373.30955147 226.92797852 376.59863281 C231.91964633 378.6130673 236.90126605 380.47573455 242.02172852 382.13378906 C242.66948242 382.34519531 243.31723633 382.55660156 243.98461914 382.77441406 C245.51637945 383.27365446 247.05006413 383.76698601 248.58422852 384.25878906 C247.97891903 379.43483887 247.03938912 374.88877462 245.7265625 370.20947266 C245.54109863 369.54348557 245.35563477 368.87749847 245.16455078 368.19132996 C244.76486929 366.75801472 244.36322016 365.32524696 243.95977592 363.8929863 C243.32095029 361.62393821 242.68803313 359.35331499 242.05665588 357.08218384 C240.26163653 350.62963802 238.45549076 344.18021897 236.64697266 337.73144531 C235.53817597 333.77617366 234.43563968 329.8191984 233.33674812 325.86116409 C232.91780415 324.35740821 232.496373 322.85434291 232.07238579 321.35200119 C231.47993092 319.2526834 230.8953977 317.15130456 230.3125 315.04931641 C229.97798325 313.85575531 229.64346649 312.66219421 229.29881287 311.4324646 C227.75618743 304.58121939 227.75618743 304.58121939 229.91235352 301.13769531 C230.54657227 300.37328125 231.18079102 299.60886719 231.83422852 298.82128906 C242.83876946 284.30466058 250.53200913 267.35695821 256.58422852 250.25878906 C256.90262695 249.3612793 257.22102539 248.46376953 257.54907227 247.5390625 C271.0904856 208.72306342 271.45639202 166.78747229 257.39672852 128.00878906 C257.00235596 126.91977295 256.6079834 125.83075684 256.20166016 124.70874023 C253.16848997 116.50344687 249.7508875 108.67213321 245.54174805 101.00585938 C244.60540151 99.29742088 243.70179848 97.57116576 242.79907227 95.84472656 C234.13262017 79.83663033 222.76871029 65.69166488 210.03686523 52.75097656 C208.83839256 51.51987321 207.67668794 50.25308945 206.52563477 48.97753906 C196.54981923 38.13522731 182.54955672 29.99697934 169.58422852 23.25878906 C168.64256836 22.76451416 168.64256836 22.76451416 167.68188477 22.26025391 C143.55854094 9.77463214 116.4731289 3.1803764 89.33227539 3.06591797 C88.24326431 3.05774048 87.15425323 3.04956299 86.03224182 3.0411377 C82.4558261 3.01647743 78.87944936 2.99982338 75.30297852 2.98535156 C74.07578598 2.98002789 72.84859344 2.97470421 71.58421326 2.96921921 C65.09643175 2.94258012 58.60866893 2.92317035 52.12084961 2.90869141 C46.76294293 2.8963117 41.40536627 2.86807502 36.04760742 2.82666016 C29.55976459 2.7773311 23.07226612 2.7525714 16.58424377 2.74546432 C14.11874116 2.73875967 11.65324601 2.72355828 9.18785095 2.69957352 C5.73688714 2.6678975 2.28725312 2.66788885 -1.16381836 2.67529297 C-2.17395493 2.65888763 -3.18409149 2.6424823 -4.22483826 2.62557983 C-12.61730798 2.69905403 -19.42875744 5.02174869 -24.41577148 12.07128906 Z " fill="#1B60DE" transform="translate(490.415771484375,325.7412109375)"/>
<path d="M0 0 C1.04514771 -0.0049649 2.09029541 -0.00992981 3.16711426 -0.01504517 C6.60832391 -0.0295898 10.04948738 -0.03645785 13.49072266 -0.04199219 C14.67450123 -0.04481956 15.8582798 -0.04764694 17.07793045 -0.05056 C23.3491564 -0.06552567 29.62035953 -0.07477023 35.89160156 -0.07910156 C42.32424806 -0.08456565 48.75668071 -0.10855774 55.18926048 -0.13707352 C60.17400695 -0.15583567 65.15870344 -0.16091279 70.14348221 -0.16243744 C72.51220486 -0.16543666 74.88092723 -0.17337104 77.24961472 -0.18662262 C116.52328861 -0.39056126 149.49951999 10.54585544 180.27978516 35.16113281 C181.565625 36.18013672 181.565625 36.18013672 182.87744141 37.21972656 C188.97430039 42.30539918 192.70824813 46.46793456 193.68603516 54.49707031 C194.06351803 63.34904379 192.58998093 68.39263775 186.73681641 74.86816406 C185.27978516 76.16113281 185.27978516 76.16113281 183.27978516 76.16113281 C182.94978516 77.15113281 182.61978516 78.14113281 182.27978516 79.16113281 C172.59515389 80.40351982 165.4021772 80.96360274 157.35400391 74.98925781 C155.3992959 73.39709617 153.46771059 71.77595408 151.56494141 70.12207031 C149.44584394 68.1428782 149.44584394 68.1428782 147.27978516 67.16113281 C147.27978516 66.50113281 147.27978516 65.84113281 147.27978516 65.16113281 C146.54759766 64.88785156 145.81541016 64.61457031 145.06103516 64.33300781 C142.42117573 63.22070749 140.1911033 61.94710944 137.77978516 60.41113281 C129.12674217 55.17342932 120.2062558 51.24805761 110.52978516 48.34863281 C109.8452124 48.14165771 109.16063965 47.93468262 108.45532227 47.72143555 C100.22512633 45.37629873 91.98847514 45.01102536 83.47167969 45 C82.53528152 44.9950351 81.59888336 44.99007019 80.6341095 44.98495483 C77.56026449 44.97044688 74.48647117 44.9635482 71.41259766 44.95800781 C70.35234249 44.95518044 69.29208733 44.95235306 68.19970322 44.94944 C62.58218898 44.93448905 56.96470012 44.92523531 51.34716797 44.92089844 C45.5973283 44.9154379 39.8477283 44.8914492 34.09796333 44.86292648 C29.63131067 44.84412814 25.16471359 44.83908532 20.69802475 44.83756256 C18.58132501 44.83457117 16.46462539 44.82666462 14.34796524 44.81337738 C-25.70470071 44.58001043 -62.11488371 56.44672283 -91.72021484 84.16113281 C-92.62255859 84.99386719 -93.52490234 85.82660156 -94.45458984 86.68457031 C-121.9547888 113.07451279 -136.98772631 150.41092352 -138.92333984 188.11816406 C-139.41457316 228.52210449 -124.76732167 267.00775185 -96.70849609 296.13769531 C-76.76015008 316.43825931 -52.28193884 330.62631764 -24.67622375 337.6491394 C-22.83555943 338.13094089 -21.00755523 338.6603878 -19.1809082 339.19287109 C-2.69160561 343.60729523 14.49225104 342.83748495 31.42443848 342.89935303 C35.70251423 342.91917129 39.98037321 342.96110991 44.25830078 343.00097656 C52.59873769 343.07554797 60.93908795 343.1262766 69.27978516 343.16113281 C69.60978516 343.82113281 69.93978516 344.48113281 70.27978516 345.16113281 C61.24707156 345.20774577 52.21440021 345.24314769 43.18159199 345.26475716 C38.98600793 345.27513552 34.79050696 345.28918418 30.5949707 345.31201172 C26.53600958 345.33395461 22.47712772 345.34574598 18.4181118 345.3508873 C16.87979067 345.35454499 15.34147323 345.3616858 13.80318642 345.37259293 C-28.06098335 345.65726335 -67.65350063 329.2221512 -97.69677734 300.21582031 C-121.79977299 276.23603486 -135.64940876 245.57547437 -140.72021484 212.16113281 C-140.91744141 210.90236328 -140.91744141 210.90236328 -141.11865234 209.61816406 C-145.87275107 172.29206464 -134.59065085 131.10292832 -111.72021484 101.28613281 C-85.78640067 68.38614809 -50.5575114 47.11246762 -8.69772339 41.90975952 C0.85241882 40.88240966 10.41388441 40.99697973 20.00634766 40.99316406 C21.92288232 40.98994272 23.83941675 40.98657802 25.75595093 40.983078 C29.76178557 40.97711556 33.76759874 40.97523506 37.7734375 40.97583008 C42.85973618 40.97593139 47.94589431 40.96229799 53.03215981 40.94505787 C56.98917245 40.93383587 60.94615225 40.93191399 64.90317917 40.9324398 C66.77590798 40.93127426 68.64863805 40.92693464 70.52135086 40.91910744 C104.23839443 40.79139552 132.68418101 48.28450379 158.45556641 70.92675781 C163.81745009 75.16880134 168.0748002 76.7416916 174.81884766 76.50878906 C180.09430154 75.76352653 183.67784813 73.07086002 187.15478516 69.09863281 C190.01832359 65.14021203 190.41771538 62.48842135 190.40478516 57.72363281 C190.40865234 56.30244141 190.40865234 56.30244141 190.41259766 54.85253906 C190.29451991 52.45972823 189.96091151 50.44777128 189.27978516 48.16113281 C188.61978516 48.16113281 187.95978516 48.16113281 187.27978516 48.16113281 C186.26064774 46.50609907 185.26346777 44.83748191 184.27978516 43.16113281 C163.19595916 19.65039159 126.96834444 6.07228923 96.27978516 3.16113281 C92.90549404 3.01725308 89.53500888 3.00414513 86.15795898 3 C85.17615158 2.9950351 84.19434418 2.99007019 83.18278503 2.98495483 C79.95078817 2.97041462 76.71884054 2.96354158 73.48681641 2.95800781 C72.37297766 2.95518044 71.25913891 2.95235306 70.11154747 2.94944 C64.20644267 2.93447336 58.30136211 2.92523041 52.39624023 2.92089844 C46.35399189 2.9154456 40.31197251 2.89147802 34.26979542 2.86292648 C29.57573343 2.84411214 24.88172426 2.83908442 20.18762779 2.83756256 C17.96372934 2.83457308 15.73983095 2.82667337 13.51597023 2.81337738 C-32.01061361 2.56081263 -75.27007378 16.12768891 -110.72021484 45.16113281 C-111.28595215 45.61858887 -111.85168945 46.07604492 -112.43457031 46.54736328 C-147.97185267 75.42326384 -171.87644926 116.03276487 -179.72021484 161.16113281 C-180.05666016 163.09279297 -180.05666016 163.09279297 -180.39990234 165.06347656 C-187.44495792 211.18541231 -176.53879038 261.61287816 -149.22021484 299.53613281 C-148.70362305 300.2319043 -148.18703125 300.92767578 -147.65478516 301.64453125 C-147.17106445 302.29711914 -146.68734375 302.94970703 -146.18896484 303.62207031 C-145.76035156 304.18716309 -145.33173828 304.75225586 -144.89013672 305.33447266 C-142.95376279 308.35783446 -141.58495532 310.90398518 -141.97755432 314.55293274 C-142.21562302 315.38181503 -142.45369171 316.21069733 -142.69897461 317.06469727 C-143.09542931 318.48822258 -143.09542931 318.48822258 -143.49989319 319.94050598 C-143.8007634 320.95819565 -144.10163361 321.97588531 -144.41162109 323.02441406 C-144.71333725 324.08919479 -145.01505341 325.15397552 -145.32591248 326.25102234 C-146.2968275 329.66295803 -147.28964185 333.06808852 -148.28271484 336.47363281 C-148.92538955 338.72388486 -149.56668037 340.97453264 -150.20654297 343.22558594 C-153.24021034 353.85231806 -156.36558305 364.44535203 -159.7109375 374.97827148 C-161.09945669 379.3571115 -162.41774932 383.75604618 -163.72021484 388.16113281 C-164.38021484 388.16113281 -165.04021484 388.16113281 -165.72021484 388.16113281 C-165.058758 382.49693338 -163.73265512 377.1984252 -162.15771484 371.72363281 C-161.92375 370.89669922 -161.68978516 370.06976562 -161.44873047 369.21777344 C-160.87658469 367.19774855 -160.2989628 365.17927605 -159.72021484 363.16113281 C-159.06021484 363.16113281 -158.40021484 363.16113281 -157.72021484 363.16113281 C-157.61136963 362.05576172 -157.50252441 360.95039062 -157.39038086 359.81152344 C-156.74206986 354.65445593 -155.39370336 349.75273301 -153.99755859 344.75488281 C-153.732621 343.78957642 -153.46768341 342.82427002 -153.19471741 341.82971191 C-152.35424123 338.77206065 -151.50610679 335.71659607 -150.65771484 332.66113281 C-150.08363836 330.57793962 -149.51006544 328.49460759 -148.93701172 326.41113281 C-147.53723408 321.32617886 -146.13117675 316.24299404 -144.72021484 311.16113281 C-145.18943359 310.71769531 -145.65865234 310.27425781 -146.14208984 309.81738281 C-148.30834006 307.54389248 -149.31067391 304.98021468 -150.72021484 302.16113281 C-152.54607186 299.26917137 -154.4108293 296.40641277 -156.29443359 293.55175781 C-157.72021484 291.16113281 -157.72021484 291.16113281 -157.72021484 289.16113281 C-158.38021484 289.16113281 -159.04021484 289.16113281 -159.72021484 289.16113281 C-185.40237349 243.15454475 -191.69621299 190.00937379 -177.8515625 139.00708008 C-172.5736609 120.89828279 -164.61433957 103.57290753 -153.72021484 88.16113281 C-152.8351343 86.86100863 -151.95112665 85.56015376 -151.06787109 84.25878906 C-145.57944627 76.24556267 -139.92059794 68.78626813 -133.19287109 61.77441406 C-130.64808641 59.15036131 -130.64808641 59.15036131 -128.23974609 56.11035156 C-125.78535782 53.23738545 -123.30325363 51.00044142 -120.34521484 48.66113281 C-117.28349485 46.21827112 -114.25634611 43.78115095 -111.34521484 41.16113281 C-81.62094347 15.60249567 -39.00935424 0.04488435 0 0 Z " fill="#1C5FDE" transform="translate(346.72021484375,222.8388671875)"/>
<path d="M0 0 C6.91062542 6.01101738 10.32776157 13.5260585 11.4375 22.5625 C10.26930917 31.7411422 7.46352183 39.55452572 0.11328125 45.53515625 C-8.11842945 51.08226189 -16.91292406 52.06790806 -26.5625 50.375 C-34.25610734 47.29755706 -39.7636719 42.14134833 -43.6875 34.875 C-46.99577122 26.44896115 -46.49240946 18.23626564 -43 10 C-39.68906073 3.7460036 -34.41497022 -1.46674807 -27.9375 -4.375 C-17.29955475 -6.63839261 -9.00773528 -6.60347687 0 0 Z M-37 6 C-37.721875 6.804375 -38.44375 7.60875 -39.1875 8.4375 C-43.47439871 14.49828782 -43.6460558 20.8010925 -43 28 C-41.53790732 35.05244706 -37.65239435 40.37980405 -31.84375 44.546875 C-25.0996677 48.44442905 -18.66057216 49.1387337 -11 48 C-3.04069126 45.68315386 1.72933035 40.96007095 6 34 C9.0025957 27.9948086 9.15152786 20.68488916 7.16015625 14.3125 C3.80314327 6.89768346 -1.35666383 1.34322851 -8.875 -1.9375 C-19.61309453 -5.29972138 -29.68727778 -2.56633174 -37 6 Z " fill="#1D62DE" transform="translate(475,447)"/>
<path d="" fill="#1C5EDD" transform="translate(0,0)"/>
<path d="" fill="#1B5BDB" transform="translate(0,0)"/>
<path d="" fill="#1D60DE" transform="translate(0,0)"/>
<path d="" fill="#1D5FDE" transform="translate(0,0)"/>
</svg>
