<?xml version="1.0" encoding="UTF-8"?>
<svg version="1.1" xmlns="http://www.w3.org/2000/svg" width="500" height="500">
<path d="M0 0 C1.71641878 -0.00407438 3.43283494 -0.00942108 5.14924622 -0.01593018 C9.7731681 -0.02950565 14.39688723 -0.02434614 19.02081227 -0.01479292 C23.8811845 -0.00714654 28.74154047 -0.01425555 33.60191345 -0.01895142 C41.75970547 -0.02439404 49.91741574 -0.01725615 58.07519531 -0.00292969 C67.48142292 0.01339941 76.88745544 0.00810038 86.29367834 -0.0084089 C94.39853642 -0.02205992 102.50333606 -0.02392597 110.60820192 -0.0160929 C115.43631874 -0.01143691 120.26434411 -0.01073415 125.09245491 -0.02070236 C129.6324678 -0.02942278 134.17223115 -0.02325824 138.71221733 -0.00601959 C140.36973025 -0.00208193 142.02726448 -0.00314162 143.68476868 -0.00980759 C156.17510514 -0.05537607 169.74968562 0.07794497 179.39428711 9.10693359 C187.7879194 18.03180844 189.26236851 26.46619274 189.12084961 38.51318359 C189.11134277 39.80329346 189.10183594 41.09340332 189.09204102 42.42260742 C188.79220913 56.15161505 185.49952554 67.0632061 177.55834961 78.38818359 C177.03499023 79.14486328 176.51163086 79.90154297 175.97241211 80.68115234 C159.23837884 103.50385969 130.60799261 114.27789002 103.60327148 118.70898438 C64.93777962 124.57951502 17.7198136 122.15716599 -15.44165039 99.38818359 C-23.75823455 93.15628987 -32.15701262 86.47776055 -37.44165039 77.38818359 C-37.44165039 76.72818359 -37.44165039 76.06818359 -37.44165039 75.38818359 C-38.10165039 75.38818359 -38.76165039 75.38818359 -39.44165039 75.38818359 C-47.40852947 58.54122586 -52.79773146 38.87860125 -46.44165039 20.38818359 C-44.81665039 16.82568359 -44.81665039 16.82568359 -43.44165039 14.38818359 C-42.78165039 14.38818359 -42.12165039 14.38818359 -41.44165039 14.38818359 C-41.1902832 13.80166016 -40.93891602 13.21513672 -40.67993164 12.61083984 C-37.91773133 7.652821 -32.98333559 4.29661507 -27.70449162 2.40988731 C-18.42316228 0.20399604 -9.46993129 -0.03813622 0 0 Z " fill="#919191" transform="translate(179.441650390625,274.61181640625)"/>
<path d="M0 0 C2.20460149 1.77111243 4.19324742 3.57326806 6.0859375 5.67578125 C6.0859375 6.33578125 6.0859375 6.99578125 6.0859375 7.67578125 C7.0759375 8.00578125 8.0659375 8.33578125 9.0859375 8.67578125 C24.71691954 26.48150862 29.132866 45.73653642 28.0859375 68.67578125 C27.06982873 79.80152923 23.41146344 89.90863409 18.0859375 99.67578125 C17.2815625 101.16078125 17.2815625 101.16078125 16.4609375 102.67578125 C16.0071875 103.33578125 15.5534375 103.99578125 15.0859375 104.67578125 C14.4259375 104.67578125 13.7659375 104.67578125 13.0859375 104.67578125 C12.7559375 105.99578125 12.4259375 107.31578125 12.0859375 108.67578125 C11.4259375 108.67578125 10.7659375 108.67578125 10.0859375 108.67578125 C9.8178125 109.26746094 9.5496875 109.85914063 9.2734375 110.46875 C2.47600428 123.1021374 -14.24528828 130.50514034 -27.28515625 134.78125 C-46.98049876 139.72248434 -67.86477684 137.23741066 -85.69921875 127.65625 C-90.88432657 124.46202198 -95.42399255 120.77661913 -99.9140625 116.67578125 C-101.10128906 115.62777344 -101.10128906 115.62777344 -102.3125 114.55859375 C-117.52625275 100.38332242 -124.03585225 81.18732328 -124.875 60.8984375 C-125.26141048 43.11122334 -119.57295833 25.36371144 -107.9140625 11.67578125 C-107.2540625 11.67578125 -106.5940625 11.67578125 -105.9140625 11.67578125 C-105.6459375 11.08410156 -105.3778125 10.49242187 -105.1015625 9.8828125 C-98.83923998 -1.75604351 -83.82676523 -8.94098953 -71.9140625 -13.32421875 C-46.37295435 -20.95688359 -21.35309019 -15.26782388 0 0 Z " fill="#909090" transform="translate(297.9140625,120.32421875)"/>
<path d="M0 0 C2.5 2.3125 2.5 2.3125 5 5 C5 5.99 5 6.98 5 8 C2.5 6.25 2.5 6.25 0 4 C0 2.68 0 1.36 0 0 Z " fill="#B3B3B3" transform="translate(308,132)"/>
</svg>
